// This code was created by geoscr v0.2.1.
p0 = newp;
Point(p0) = {0, 0, 0};
p1 = newp;
Point(p1) = {0, 0, 1};
p2 = newp;
Point(p2) = {0, 0, 2};
p3 = newp;
Point(p3) = {0, 1, 0};
p4 = newp;
Point(p4) = {0, 1, 1};
p5 = newp;
Point(p5) = {0, 1, 2};
p6 = newp;
Point(p6) = {0, 2, 0};
p7 = newp;
Point(p7) = {0, 2, 1};
p8 = newp;
Point(p8) = {0, 2, 2};
p9 = newp;
Point(p9) = {1, 0, 0};
p10 = newp;
Point(p10) = {1, 0, 1};
p11 = newp;
Point(p11) = {1, 0, 2};
p12 = newp;
Point(p12) = {1, 1, 0};
p13 = newp;
Point(p13) = {1, 1, 1};
p14 = newp;
Point(p14) = {1, 1, 2};
p15 = newp;
Point(p15) = {1, 2, 0};
p16 = newp;
Point(p16) = {1, 2, 1};
p17 = newp;
Point(p17) = {1, 2, 2};
p18 = newp;
Point(p18) = {2, 0, 0};
p19 = newp;
Point(p19) = {2, 0, 1};
p20 = newp;
Point(p20) = {2, 0, 2};
p21 = newp;
Point(p21) = {2, 1, 0};
p22 = newp;
Point(p22) = {2, 1, 1};
p23 = newp;
Point(p23) = {2, 1, 2};
p24 = newp;
Point(p24) = {2, 2, 0};
p25 = newp;
Point(p25) = {2, 2, 1};
p26 = newp;
Point(p26) = {2, 2, 2};
l0 = newl;
Line(l0) = {p0, p9};
l1 = newl;
Line(l1) = {p0, p3};
l2 = newl;
Line(l2) = {p0, p1};
l3 = newl;
Line(l3) = {p1, p10};
l4 = newl;
Line(l4) = {p1, p4};
l5 = newl;
Line(l5) = {p1, p2};
l6 = newl;
Line(l6) = {p2, p11};
l7 = newl;
Line(l7) = {p2, p5};
l8 = newl;
Line(l8) = {p3, p12};
l9 = newl;
Line(l9) = {p3, p6};
l10 = newl;
Line(l10) = {p3, p4};
l11 = newl;
Line(l11) = {p4, p13};
l12 = newl;
Line(l12) = {p4, p7};
l13 = newl;
Line(l13) = {p4, p5};
l14 = newl;
Line(l14) = {p5, p14};
l15 = newl;
Line(l15) = {p5, p8};
l16 = newl;
Line(l16) = {p6, p15};
l17 = newl;
Line(l17) = {p6, p7};
l18 = newl;
Line(l18) = {p7, p16};
l19 = newl;
Line(l19) = {p7, p8};
l20 = newl;
Line(l20) = {p8, p17};
l21 = newl;
Line(l21) = {p9, p18};
l22 = newl;
Line(l22) = {p9, p12};
l23 = newl;
Line(l23) = {p9, p10};
l24 = newl;
Line(l24) = {p10, p19};
l25 = newl;
Line(l25) = {p10, p13};
l26 = newl;
Line(l26) = {p10, p11};
l27 = newl;
Line(l27) = {p11, p20};
l28 = newl;
Line(l28) = {p11, p14};
l29 = newl;
Line(l29) = {p12, p21};
l30 = newl;
Line(l30) = {p12, p15};
l31 = newl;
Line(l31) = {p12, p13};
l32 = newl;
Line(l32) = {p13, p22};
l33 = newl;
Line(l33) = {p13, p16};
l34 = newl;
Line(l34) = {p13, p14};
l35 = newl;
Line(l35) = {p14, p23};
l36 = newl;
Line(l36) = {p14, p17};
l37 = newl;
Line(l37) = {p15, p24};
l38 = newl;
Line(l38) = {p15, p16};
l39 = newl;
Line(l39) = {p16, p25};
l40 = newl;
Line(l40) = {p16, p17};
l41 = newl;
Line(l41) = {p17, p26};
l42 = newl;
Line(l42) = {p18, p21};
l43 = newl;
Line(l43) = {p18, p19};
l44 = newl;
Line(l44) = {p19, p22};
l45 = newl;
Line(l45) = {p19, p20};
l46 = newl;
Line(l46) = {p20, p23};
l47 = newl;
Line(l47) = {p21, p24};
l48 = newl;
Line(l48) = {p21, p22};
l49 = newl;
Line(l49) = {p22, p25};
l50 = newl;
Line(l50) = {p22, p23};
l51 = newl;
Line(l51) = {p23, p26};
l52 = newl;
Line(l52) = {p24, p25};
l53 = newl;
Line(l53) = {p25, p26};
ll0 = newll;
Line Loop(ll0) = {l1, l10, -l4, -l2};
s0 = news;
Plane Surface(s0) = {ll0};
ll1 = newll;
Line Loop(ll1) = {l2, l3, -l23, -l0};
s1 = news;
Plane Surface(s1) = {ll1};
ll2 = newll;
Line Loop(ll2) = {l0, l22, -l8, -l1};
s2 = news;
Plane Surface(s2) = {ll2};
ll3 = newll;
Line Loop(ll3) = {l4, l13, -l7, -l5};
s3 = news;
Plane Surface(s3) = {ll3};
ll4 = newll;
Line Loop(ll4) = {l5, l6, -l26, -l3};
s4 = news;
Plane Surface(s4) = {ll4};
ll5 = newll;
Line Loop(ll5) = {l3, l25, -l11, -l4};
s5 = news;
Plane Surface(s5) = {ll5};
ll6 = newll;
Line Loop(ll6) = {l6, l28, -l14, -l7};
s6 = news;
Plane Surface(s6) = {ll6};
ll7 = newll;
Line Loop(ll7) = {l9, l17, -l12, -l10};
s7 = news;
Plane Surface(s7) = {ll7};
ll8 = newll;
Line Loop(ll8) = {l10, l11, -l31, -l8};
s8 = news;
Plane Surface(s8) = {ll8};
ll9 = newll;
Line Loop(ll9) = {l8, l30, -l16, -l9};
s9 = news;
Plane Surface(s9) = {ll9};
ll10 = newll;
Line Loop(ll10) = {l12, l19, -l15, -l13};
s10 = news;
Plane Surface(s10) = {ll10};
ll11 = newll;
Line Loop(ll11) = {l13, l14, -l34, -l11};
s11 = news;
Plane Surface(s11) = {ll11};
ll12 = newll;
Line Loop(ll12) = {l11, l33, -l18, -l12};
s12 = news;
Plane Surface(s12) = {ll12};
ll13 = newll;
Line Loop(ll13) = {l14, l36, -l20, -l15};
s13 = news;
Plane Surface(s13) = {ll13};
ll14 = newll;
Line Loop(ll14) = {l17, l18, -l38, -l16};
s14 = news;
Plane Surface(s14) = {ll14};
ll15 = newll;
Line Loop(ll15) = {l19, l20, -l40, -l18};
s15 = news;
Plane Surface(s15) = {ll15};
ll16 = newll;
Line Loop(ll16) = {l22, l31, -l25, -l23};
s16 = news;
Plane Surface(s16) = {ll16};
ll17 = newll;
Line Loop(ll17) = {l23, l24, -l43, -l21};
s17 = news;
Plane Surface(s17) = {ll17};
ll18 = newll;
Line Loop(ll18) = {l21, l42, -l29, -l22};
s18 = news;
Plane Surface(s18) = {ll18};
ll19 = newll;
Line Loop(ll19) = {l25, l34, -l28, -l26};
s19 = news;
Plane Surface(s19) = {ll19};
ll20 = newll;
Line Loop(ll20) = {l26, l27, -l45, -l24};
s20 = news;
Plane Surface(s20) = {ll20};
ll21 = newll;
Line Loop(ll21) = {l24, l44, -l32, -l25};
s21 = news;
Plane Surface(s21) = {ll21};
ll22 = newll;
Line Loop(ll22) = {l27, l46, -l35, -l28};
s22 = news;
Plane Surface(s22) = {ll22};
ll23 = newll;
Line Loop(ll23) = {l30, l38, -l33, -l31};
s23 = news;
Plane Surface(s23) = {ll23};
ll24 = newll;
Line Loop(ll24) = {l31, l32, -l48, -l29};
s24 = news;
Plane Surface(s24) = {ll24};
ll25 = newll;
Line Loop(ll25) = {l29, l47, -l37, -l30};
s25 = news;
Plane Surface(s25) = {ll25};
ll26 = newll;
Line Loop(ll26) = {l33, l40, -l36, -l34};
s26 = news;
Plane Surface(s26) = {ll26};
ll27 = newll;
Line Loop(ll27) = {l34, l35, -l50, -l32};
s27 = news;
Plane Surface(s27) = {ll27};
ll28 = newll;
Line Loop(ll28) = {l32, l49, -l39, -l33};
s28 = news;
Plane Surface(s28) = {ll28};
ll29 = newll;
Line Loop(ll29) = {l35, l51, -l41, -l36};
s29 = news;
Plane Surface(s29) = {ll29};
ll30 = newll;
Line Loop(ll30) = {l38, l39, -l52, -l37};
s30 = news;
Plane Surface(s30) = {ll30};
ll31 = newll;
Line Loop(ll31) = {l40, l41, -l53, -l39};
s31 = news;
Plane Surface(s31) = {ll31};
ll32 = newll;
Line Loop(ll32) = {l42, l48, -l44, -l43};
s32 = news;
Plane Surface(s32) = {ll32};
ll33 = newll;
Line Loop(ll33) = {l44, l50, -l46, -l45};
s33 = news;
Plane Surface(s33) = {ll33};
ll34 = newll;
Line Loop(ll34) = {l47, l52, -l49, -l48};
s34 = news;
Plane Surface(s34) = {ll34};
ll35 = newll;
Line Loop(ll35) = {l49, l53, -l51, -l50};
s35 = news;
Plane Surface(s35) = {ll35};
sl0 = news;
Surface Loop(sl0) = {s0,s1,s2,s16,s8,s5};
vol0 = newv;
Volume(vol0) = {sl0};
sl1 = news;
Surface Loop(sl1) = {s3,s4,s5,s19,s11,s6};
vol1 = newv;
Volume(vol1) = {sl1};
sl2 = news;
Surface Loop(sl2) = {s7,s8,s9,s23,s14,s12};
vol2 = newv;
Volume(vol2) = {sl2};
sl3 = news;
Surface Loop(sl3) = {s10,s11,s12,s26,s15,s13};
vol3 = newv;
Volume(vol3) = {sl3};
sl4 = news;
Surface Loop(sl4) = {s16,s17,s18,s32,s24,s21};
vol4 = newv;
Volume(vol4) = {sl4};
sl5 = news;
Surface Loop(sl5) = {s19,s20,s21,s33,s27,s22};
vol5 = newv;
Volume(vol5) = {sl5};
sl6 = news;
Surface Loop(sl6) = {s23,s24,s25,s34,s30,s28};
vol6 = newv;
Volume(vol6) = {sl6};
sl7 = news;
Surface Loop(sl7) = {s26,s27,s28,s35,s31,s29};
vol7 = newv;
Volume(vol7) = {sl7};